<svg xmlns="http://www.w3.org/2000/svg" viewBox="0 0 1371.3 354.6"><defs><style>.a{fill:#221f1f;}.b{fill:#07bcc7;}.c{fill:#fddd09;}.d{fill:#07949a;}.e{fill:#8fc63e;}.f{fill:#eb3338;}.g{fill:#fff;opacity:0.5;}</style></defs><title>mairo-vergara (2)</title><path class="a" d="M319.9,164.5C322.2,62.7,230.6-16.3,129.6,2.9,2.1,30.6-35,171.5,34.7,260c-.6,6.3-5.9,56.4-8.8,84.1a9.4,9.4,0,0,0,14,9.2l71.4-40.9C209.1,343.6,316.2,274.5,319.9,164.5Z"/><path class="b" d="M163.9,17.1A142.8,142.8,0,0,0,45.6,245.6c.1,0,.1.1.2.2l1.7,2.2.6.8a20.9,20.9,0,0,1,1.4,1.7l.8,1c.8.9,1.5,1.8,2.3,2.6L45,328.7a1,1,0,0,0,1.6,1l63.1-36a143.8,143.8,0,0,0,46.2,9.2h13.5a142.9,142.9,0,0,0-5.5-285.5Z"/><path class="c" d="M119.3,51.6c31.2,14.5,61.8,37.5,72.3,73,1.5,4.7,3.1,9.5,4.9,14.1,35.4-3.3,71.7-6,104.5-1.8a142.6,142.6,0,0,0-42.4-80.1C209.1,35.6,160.4,39.1,119.3,51.6Z"/><path class="d" d="M52.4,255.3,45,328.4a1.2,1.2,0,0,0,1.8,1.2l61.6-35.2a3.3,3.3,0,0,1,2.6-.2,141.2,141.2,0,0,0,23.6,6.3,1,1,0,0,0,.7-1.8,67.7,67.7,0,0,1-15-14.2c-15.6-20.1-42.5-27.7-67-30A.9.9,0,0,0,52.4,255.3Z"/><path class="e" d="M301,136.9c-32.8-4.2-69.1-1.5-104.5,1.8,14.6,38.4,40.6,72.9,65.1,97.3,7.9-1.4,15.3-3,22.2-4.7a140.7,140.7,0,0,0,19-67.3A143,143,0,0,0,301,136.9ZM119.3,51.6c-35.9,10.9-66,28.5-86,42.4A149.7,149.7,0,0,0,26,110.3c19.1,16.7,46.4,32.9,81.6,34,26.6.8,57.3-2.6,88.9-5.6-1.8-4.6-3.4-9.4-4.9-14.1C181.1,89.1,150.5,66.1,119.3,51.6Z"/><path class="f" d="M258.6,56.8A142.4,142.4,0,0,0,84.7,38.5a262.4,262.4,0,0,1,34.6,13.1C160.4,39.1,209.1,35.6,258.6,56.8Zm3,179.2c4,3.9,7.8,7.6,11.7,10.9a128.9,128.9,0,0,0,10.5-15.6C276.9,233,269.5,234.6,261.6,236Zm-154-91.7c-35.2-1.1-62.5-17.3-81.6-34A143.9,143.9,0,0,0,17,156a145.7,145.7,0,0,0,7,47.8c30.1-10.1,69.3-14.1,101.4,13.7,33.6,29.2,91,26.7,136.2,18.5-24.5-24.4-50.5-58.9-65.1-97.3C164.9,141.7,134.2,145.1,107.6,144.3Z"/><path class="g" d="M35.4,222c3.6-3.2.2-2.4,1.1-7.4C32.9,212,29,209.4,25,207a139.2,139.2,0,0,0,24.7,44c2.4-5.7,5.5-10.7,9.8-13.7C57,228.3,38.8,225.2,35.4,222Zm-4.8-90c4.9-1.4,16.6-1,18.8,1-.1-9.1-4.3-15.4-5.7-23.6-1.1,2.2-3,3.3-6.1,2.8,1.9-7.4-.1-11.9-7.2-12.6-1.8,5-6,10.2-4.9,16.4a12.1,12.1,0,0,0-1.4-.5,133.9,133.9,0,0,0-6.7,32.6,53.8,53.8,0,0,1,21.3-7.2C30.8,141.7,35,133.7,30.6,132ZM153,79.2c3.9-4.2,7.4-4.7,8.2-4.6-.1-3.7-4.4-4.3-4.3-8.1,4.6-.1,3.5,4,9,3.3-.1-11-13.2,1-14.6-4.2C149.2,77.9,159.1,67.5,153,79.2Zm49.2,24.9c-7.2-10.9,10.7-18.4,7.6-23.5C201.1,79.7,191.3,105.4,202.2,104.1Zm37.7-34c1.1-7.3-4.4-9.9-9.4-12.9C227.7,65.9,236.5,66.1,239.9,70.1Zm-133.5,15c13.6-.5,6.9-25.3,23.9-30.4-2.6-6.4-10.4,2.9-11.2-1.8,6.9-4.6-5.2-1.2-6.5-6.7,3.4-.6,10.6,3.9,11.4-.1-5.6-1.9-4.6-8.7-11.8-9.5C105,39,101.1,38.4,99.4,46a13.7,13.7,0,0,0-2.9-6.2c-.6,2.2-1.3,4.3-4.3,3.2.3-1.9,1.9-2,2.5-3.5-8.4-2.3-11.2,2.5-17.7,4a9,9,0,0,0,1.1,4.8c-4.1,2.2-8.7-.7-12.5,4.3,4.6,2.9,2.5,2.6-2.3,4.8,1.4.6,1.9,1.8,1.3,4,15.5,2.9,9.2,26.8,3.6,25.2,2,4.6,4.9-1.6,5.3,2.8-.9,2.5-4.4,1.4-6.2,2.8-2.7,8,.7,11.5-1.1,18.8,2.6,1.4,4.3,3.5,6.9,4.9,6.7-19.1,31.7-16.4,35.6-20.9S106.7,88,106.4,85.1Zm195.3,59.1a139.4,139.4,0,0,0-18-54.9c-4.3,4.6-17.2-1.3-22.6,3.2-.5-5.9,4-5,3.6-10.8-7.8-7.6-9.7.5-15.8-8.3-.6,14.7-7.2,7-13.5,13.1,1.9,10-2.4,4-5.5,10.6.2,3.7,7,2.6,4.4,8.2-2.1-2.2-2.8-5.6-6.5-6.7-4.5,2,1.6,4.9-2.8,5.3.3-1.9-2.8-2.9-3.6-.6,5.2,0,.6,7.2,4.3,8.3,1-4.5,6.2.6,5.3,2.7-7.7-7.4-1.5,4.9-8.6,6.3,2.1-11.4-1-19-5.4-25.6-4,7.4,1.6,16.1-.8,17-7.1-4.5-19.2,1.5-27.1,3.2.1-5.2-11.6,19.9-15.2-.4,1.9,1.9,4.6,3.2,9,3.3-10.2-28.5-42.1-9.3-46.1,15.5,9.1-4.1,7.2.1,10.2,7.3,9.3-3.3,4.3-28.3,16.8-22-2.2,3-5.9,3.9-5.5,10.5,2.1,5.1,13-2.9,14.8,2.4-2.7-.1-4.6,2.7-11.7,1.9-.5,2.5.3,4.2,1,5.9-4.3-6.1-4.8,2.9-8.3,4.3-7.9.9-12-.9-13.9-7.9-1.9,11.6-15.5,14.3-19.7,15.9,4.1,1,3.3,5.3,2.3,9.9L111.7,160c-2.1,29.6,15.6-.7,28.1,2.6,2,3.5,6.4,14.8,10.2,7.3-4.3-.4-9.8-8-6.2-8.6,8.5,1.5,7.3,18.7,14.6,15.6-4.5-.9.6-6.2,2.8-5.3-3.2,10.5,11.6,11.1,15.2,12-1,15.5-17.8,5.6-23.2,2a13.1,13.1,0,0,1-4.6,5c-2.7-3.5-5.8-6.7-12.1-7.6,2.8-2.2,2.1-5.5-.6-7.8-6.3,2-14.9.7-22.9.2-9,13.4-23.9,17.4-22.2,32.6,2.2,21.1,24.6,12.1,38.1,23.2,3.4,21.6-3.6,42.7,3.3,63.2,23.4,5,24.3-20.8,40.2-26-5.3-24.8,17.8-23.4,23.4-40-4.4-.1-7.4,1.9-13.2-.2-1.5-10.4-13.7-21.7-8.3-31.7,1.7,10.3,9.3,16.2,8.8,28,10.8-1.7,22.7-1.9,26.8-12.8-3.5-5.2-5.5-3.8-12.7-3.9.3-5.1-6.6-8.3-1.9-11.8,12.7,15.2,43.6,14,38.6,44.2,9.4-5.9,12-21.1,26-20.6,5,10.1,8.4,18.4,16.7,22.4,2.2-3.2,4.4-6.5,6.4-9.9a8.1,8.1,0,0,1-1.4-5.3l4.2.4c5.5-10.7,11.4-22.8,12.8-35.7l.5.2A139.2,139.2,0,0,0,301.7,144.2ZM184.1,266.5c-3.6,5.5-10.1,7.1-10.3,17.3C181.6,286.3,190.1,268.4,184.1,266.5ZM123,148.5c.7-2.1,3.2-1.5,5.9-1-1.1-6.8-2.8-13.3-6.7-18.1C122.7,139.2,122,140.8,123,148.5ZM42.7,78.4a4.6,4.6,0,0,0,.7,4.3c7.5,8.7-7.8,7.6-10.4,11.6,9.8-1.2,4.7,8.5,11.6,9.5.4-3.5,2-3.7,4-1.3,2.3-5-1.9-5.2-.4-9.5,2.1,2.7,6.5,3.5,7.7-.7-4.5-6.6-3.7-14.4-6.6-22.7C47,72.4,44.8,75.4,42.7,78.4Zm69.8,28.5c-1.8,6.2-9.7-4.4-9.6.4,2.1.7,1.6,3.3,1,5.9C109.8,116.6,117.5,111.1,112.5,106.9Z"/><path class="a" d="M566.6,100a28.6,28.6,0,0,0,5.6,3.7,59.9,59.9,0,0,0,7.2,3,41.7,41.7,0,0,1,9.2,4.4c4.2,3.4,2.9,8.3.2,9.8s-4.5,1.4-8.3,1.4a39.7,39.7,0,0,1-10.2-1.2,61.6,61.6,0,0,1-7.6-2.5l-2.5,12c1.3.5,3.7,1.3,7,2.2,17.3,4.1,44.6.4,37.5-23.8-1.9-5.2-6-7.6-9.2-9.5s-5.3-2.4-8.7-3.7a39.7,39.7,0,0,1-5.2-2.1,14.1,14.1,0,0,1-3.5-2,5.2,5.2,0,0,1-1.8-2.2c-1.5-5.3.4-5.3,2.2-7.3,5-2.5,12.5-1.2,15.6-.6a36.3,36.3,0,0,1,6.1,2l2.6-11.7a60.7,60.7,0,0,0-7.5-1.9c-9.7-2-21.4-1.1-27.5,3.9s-7.6,15.6-4.9,20.9A15.9,15.9,0,0,0,566.6,100Zm115,0a28.6,28.6,0,0,0,5.6,3.7,59.9,59.9,0,0,0,7.2,3,41.7,41.7,0,0,1,9.2,4.4c4.2,3.4,2.9,8.3.2,9.8s-4.5,1.4-8.3,1.4a39.7,39.7,0,0,1-10.2-1.2,61.6,61.6,0,0,1-7.6-2.5l-2.5,12c1.3.5,3.7,1.3,7,2.2,17.3,4.1,44.6.4,37.5-23.8-1.9-5.2-6-7.6-9.2-9.5s-5.3-2.4-8.7-3.7a39.7,39.7,0,0,1-5.2-2.1,14.1,14.1,0,0,1-3.5-2,5.2,5.2,0,0,1-1.8-2.2c-1.5-5.3.4-5.3,2.2-7.3,5-2.5,12.5-1.2,15.6-.6a36.3,36.3,0,0,1,6.1,2l2.6-11.7a60.7,60.7,0,0,0-7.5-1.9c-9.7-2-21.4-1.1-27.5,3.9s-7.6,15.6-4.9,20.9A15.9,15.9,0,0,0,681.6,100Zm-29.2,31.9a27.4,27.4,0,0,0,9.4-6.7c6.1-6.7,8.2-16,8.2-23.7a37.1,37.1,0,0,0-2.2-13.3,30.9,30.9,0,0,0-6.1-10.3,25.4,25.4,0,0,0-9.5-6.6,33.1,33.1,0,0,0-24,0,25.9,25.9,0,0,0-9.4,6.6,29.5,29.5,0,0,0-6.2,10.3c-3.2,8.5-2.5,19.8,0,26.7a30,30,0,0,0,6.1,10.3,27.4,27.4,0,0,0,9.4,6.7C635.9,135.3,646.1,134.6,652.4,131.9Zm-23.3-15.6c-5.5-7.1-4.9-23.4,0-29.5,5.5-7.7,17.9-6.3,22.2,0,2.6,3.6,4,8.5,4,14.7s-1.4,11.2-4,14.8C645.8,124.1,633.4,122.8,629.1,116.3Zm136.4,9.1a28,28,0,0,0,9.9,6.5c8.5,3.3,19.6,2.3,26.8,1.2a76,76,0,0,0,10.7-2.4V40.5l-14.3,2.4V72.7a34,34,0,0,0-6-2.4,31.5,31.5,0,0,0-19.7,1.2,24.5,24.5,0,0,0-8.6,6.6,28.9,28.9,0,0,0-5.4,10.3c-2.7,8.6-2.2,20,.3,26.8A29.3,29.3,0,0,0,765.5,125.4Zm9.9-38.5c3.5-5.8,13.3-6.1,18.1-4.2a24.4,24.4,0,0,1,5.1,2.4v35.6a29.6,29.6,0,0,1-4,.7c-6.9,1.2-15-.7-18.3-5.1s-4.5-8.6-4.5-14.9S773,90.5,775.4,86.9Zm-240.6-4a33.4,33.4,0,0,1,3.7-.9c6.8-.9,8.8-.2,12.4.2l4.9,1.3,2.5-12.1a20.3,20.3,0,0,0-2.8-.8l-3.7-.7-3.8-.5a63,63,0,0,0-17.2,1.2,86.7,86.7,0,0,0-10.4,2.9v59.1h14.4Zm-41.7,37.8a17.4,17.4,0,0,1-4.3.6c-7.7.7-12.1.2-15.7-4-1.9-2.9-2.9-7.6-2.9-14.3V70.5H455.9v34.8a46.8,46.8,0,0,0,1.3,11.6,23.2,23.2,0,0,0,4.3,9.1,19.8,19.8,0,0,0,8.1,5.9c7.9,3.3,20.5,2,27.1,1,4.4-.7,8-1.5,10.8-2.2V70.5H493.1Zm698.2,11.9V97.7a60.4,60.4,0,0,0-1-11.6c-1.5-7.6-5.5-12.3-11-14.8s-14-2.5-17.6-1.5a41,41,0,0,0-5.3,1.5,23.4,23.4,0,0,0-4.5,2,19.1,19.1,0,0,0-3.3,2,20,20,0,0,0-6.9-4.4c-7.6-2.8-18.4-1.4-24.6-.6-4.5.7-8.1,1.5-10.9,2.2v60.1h14.4V82.5l4.2-.6c7.4-.9,11.4-.1,14.3,4s2.5,7.6,2.5,14.1v32.6h14.3V98.3c0-2.5-.1-4.9-.3-7.1a41.3,41.3,0,0,0-1.3-6.3,18,18,0,0,1,4.6-2.2c6.3-2.2,13.2-1.1,15.7,3.2s2.3,7.6,2.3,14.1v32.6Zm112-23.6a13.9,13.9,0,0,0-3.3-5.3,27.9,27.9,0,0,0-5.9-4.2c-2.4-1.2-5.3-2.4-8.7-3.7a46.4,46.4,0,0,1-5.2-2.1,13.3,13.3,0,0,1-3.4-2,6.4,6.4,0,0,1-1.9-2.2c-1.4-5.3.4-5.3,2.2-7.3,5.1-2.5,12.5-1.2,15.7-.6a38.1,38.1,0,0,1,6,2l2.6-11.7A58.2,58.2,0,0,0,1294,70c-9.7-2-21.5-1.1-27.6,3.9s-7.5,15.6-4.9,20.9a17.6,17.6,0,0,0,3.7,5.2,26.7,26.7,0,0,0,5.7,3.7,53.8,53.8,0,0,0,7.2,3,46.9,46.9,0,0,1,9.2,4.4c4.2,3.4,2.8,8.3.1,9.8s-4.5,1.4-8.3,1.4a38.3,38.3,0,0,1-10.1-1.2,63.6,63.6,0,0,1-7.7-2.5l-2.5,12c1.4.5,3.7,1.3,7,2.2C1283.2,136.9,1310.4,133.2,1303.3,109ZM396.5,123.2a33.8,33.8,0,0,0,12.5,8.3,45.5,45.5,0,0,0,16.6,2.9,82.2,82.2,0,0,0,8.9-.5,62,62,0,0,0,7.5-1.5l5.7-1.8a17.7,17.7,0,0,0,3.9-1.9l-4-12.2a65.1,65.1,0,0,1-7.8,3c-6.8,2.1-18.7,2.2-24.3-.6a19.9,19.9,0,0,1-7.8-6.2,25.8,25.8,0,0,1-4.6-9.4c-2.2-8-1.7-18.9.4-24.9a27,27,0,0,1,5.3-9.3,20.9,20.9,0,0,1,8-5.5c7.3-2.9,16.1-1.8,21.4-.3a34.9,34.9,0,0,1,8.2,3.4l4.4-12.2L447.9,53a25.4,25.4,0,0,0-5.1-2.1,70.4,70.4,0,0,0-7.2-1.7c-8.6-1.6-18.5-.5-25.1,2.1a35.6,35.6,0,0,0-12.8,8.4,39.1,39.1,0,0,0-8.6,13.4c-4.4,10.7-3.7,27.2-.4,36.6A37.5,37.5,0,0,0,396.5,123.2Zm629-64.4a8.1,8.1,0,0,0,2.7-6.4,8.4,8.4,0,0,0-2.7-6.6,9.7,9.7,0,0,0-12.4,0,9.6,9.6,0,0,0,0,13A9.6,9.6,0,0,0,1025.5,58.8Zm181.6,70.6c9.7,6.4,23.9,4.5,33.2,3.5,4.5-.7,7.8-1.2,10.1-1.7V93.6a39.8,39.8,0,0,0-1.3-10.1,17.3,17.3,0,0,0-11.9-12.7,35.3,35.3,0,0,0-12-1.8,66,66,0,0,0-11.2.9,71.6,71.6,0,0,0-7.9,1.9l1.8,11.7a34,34,0,0,1,6.7-1.7c5.1-.8,11.9-1.1,15.3.2a11.3,11.3,0,0,1,3.9,2.7,10.3,10.3,0,0,1,2.1,4,18.4,18.4,0,0,1,.6,4.7v2.4a44.4,44.4,0,0,0-5.6-1,45.4,45.4,0,0,0-14.8.7,25.2,25.2,0,0,0-8.2,3.3,18.1,18.1,0,0,0-5.7,6c-3.1,5.6-2.1,14.4-.2,18.4A15.5,15.5,0,0,0,1207.1,129.4Zm8.6-20.2a7.4,7.4,0,0,1,3.1-2.7,15,15,0,0,1,4.4-1.3,34.8,34.8,0,0,1,9.8,0l3.5.7v15.9a51.9,51.9,0,0,1-10.1.7c-3.7,0-6.6-.6-8.7-1.9C1214,118.4,1214,111.1,1215.7,109.2ZM950.8,125.4a27.1,27.1,0,0,0,9.9,6.5c8.5,3.3,19.5,2.3,26.8,1.2a79.4,79.4,0,0,0,10.7-2.4V40.5l-14.4,2.4V72.7a30.1,30.1,0,0,0-5.9-2.4,31.4,31.4,0,0,0-19.7,1.2,25.8,25.8,0,0,0-8.7,6.6,32.5,32.5,0,0,0-5.4,10.3c-2.6,8.6-2.2,20,.4,26.8A26.6,26.6,0,0,0,950.8,125.4Zm9.8-38.5c3.6-5.8,13.4-6.1,18.2-4.2a21.2,21.2,0,0,1,5,2.4v35.6a25.3,25.3,0,0,1-3.9.7c-7,1.2-15-.7-18.4-5.1s-4.5-8.6-4.5-14.9S958.2,90.5,960.6,86.9ZM932.1,50.3h-15v82.3h15Zm80.2,82.3h14.3V70.5h-14.3Zm-151.6,1.2a48.5,48.5,0,0,0,5.7-.9,42,42,0,0,0,4.8-1.2,22,22,0,0,0,3.2-1.2l-1.9-11.8a35.7,35.7,0,0,1-6.8,2c-7.8,1.8-18.7,1.1-23.1-3.1-3.2-2.7-4.9-6.6-5.3-11.6h40.9a21.3,21.3,0,0,0,.2-2.7c.7-10.9-2.4-21.3-7.1-26.4-6.5-8-22-9.7-30.7-5.8a25.9,25.9,0,0,0-9.3,6.1,30.5,30.5,0,0,0-6.4,10.3,37.4,37.4,0,0,0-2.5,14.4,43.5,43.5,0,0,0,1.9,12.8,25.9,25.9,0,0,0,5.9,10.2C837.4,133.4,851.3,135,860.7,133.8Zm-22-43.7a13.3,13.3,0,0,1,2.7-4.6c5.3-5.6,10.8-5,15.5-3.4a10,10,0,0,1,3.9,3.1,13.6,13.6,0,0,1,2.5,4.6,21.2,21.2,0,0,1,.8,5.7H837.4A25,25,0,0,1,838.7,90.1Zm216.1,41.8c11.8,5,26.3,1.7,33.7-6.7,6.1-6.7,8.2-16,8.2-23.7a37.1,37.1,0,0,0-2.2-13.3,30.9,30.9,0,0,0-6.1-10.3,25.9,25.9,0,0,0-9.4-6.6,33.3,33.3,0,0,0-24.1,0,25.9,25.9,0,0,0-9.4,6.6,29.5,29.5,0,0,0-6.2,10.3c-3.2,8.5-2.5,19.8,0,26.7a30,30,0,0,0,6.1,10.3A27.4,27.4,0,0,0,1054.8,131.9Zm1-45.1c5.5-7.7,17.9-6.3,22.2,0,2.7,3.6,4,8.5,4,14.7s-1.3,11.2-4,14.8c-5.5,7.8-17.9,6.5-22.2,0S1050.9,92.9,1055.8,86.8ZM773.4,216.1a38.1,38.1,0,0,0-13.1-9.1c-10.6-4.5-24.5-3.8-33.6,0a40.6,40.6,0,0,0-21.9,23.1c-4.4,11.2-3.8,26.7-.1,36.5a41.2,41.2,0,0,0,8.6,14.2,35.6,35.6,0,0,0,13.1,9.1c10.6,4.6,25.3,3.9,34.2,0a36.8,36.8,0,0,0,13.2-9.1,39.2,39.2,0,0,0,8.3-14.2,56.1,56.1,0,0,0-.1-36.5A40.3,40.3,0,0,0,773.4,216.1ZM756.1,266c-5.9,9.2-20.4,7.9-25.4,0s-5.5-28,0-35.2c6-8.9,20.5-7.7,25.4,0,3,4.3,4.4,10.1,4.4,17.5S759.1,261.6,756.1,266ZM508.2,232.8c-.7-10-1.5-19.6-2.4-28.7s-1.9-17.5-3-25H479.9c-1.9,3.6-4.2,8-6.7,13.2s-5.2,10.8-7.9,16.9-5.5,12.3-8.2,18.6-5.2,12.4-7.6,17.9c-2.4-5.5-4.9-11.5-7.6-17.9s-5.4-12.5-8.2-18.6-5.4-11.7-7.9-16.9-4.8-9.6-6.7-13.2h-24c-1.1,7.5-2.1,15.8-3,25s-1.7,18.7-2.4,28.7-1.4,19.9-2,29.9-1.1,19.4-1.5,28.2h24.5c.3-10.9.8-22.7,1.3-35.5s1.3-25.7,2.4-38.7c2,4.5,4.1,9.5,6.5,15s4.7,11,7,16.5l12.2,28.5h17.6c1.5-3.5,3.4-7.8,5.5-12.8s4.4-10.2,6.7-15.7l7.1-16.5c2.4-5.5,4.5-10.5,6.5-15q1.5,19.5,2.4,38.7c.5,12.8.9,24.6,1.3,35.5h24.5c-.5-8.8-1-18.2-1.6-28.2S508.9,242.7,508.2,232.8Zm623.3-27.2-9.1-1.1c-10.3-.9-19.6-.1-27.2,2.6a37,37,0,0,0-13.6,8.5,35.4,35.4,0,0,0-8.5,13.1c-5.5,14.8-2.9,36.5,6.5,46.2,6.8,8.8,24.9,12.2,35.8,9.5a37.7,37.7,0,0,0,8-2.7v3.1a16.4,16.4,0,0,1-4.2,11.6c-5.7,6.3-22.4,4.5-28.8,3.2a64.5,64.5,0,0,1-11.8-3.5l-4.2,20.1a110.3,110.3,0,0,0,14.3,3.7c16.8,3.1,38.9.9,48.2-8.8,7-6.7,10.6-17,10.6-30.8V209c-2.2-.7-4.6-1.3-7.4-1.9S1134.5,206,1131.5,205.6Zm-8.1,57.1a26.2,26.2,0,0,1-5.5,2.2c-13.8,3.8-23.5-3.1-23.2-19.2,0-6.4,1.6-11.7,4.7-15.9,3.4-5.8,14.8-7,19.8-6.1l4.2.6ZM1060,205.2l-5.4-.7a90.4,90.4,0,0,0-24.3,1.8,158.4,158.4,0,0,0-15.3,4.3v80.3h24.1V226.1a24.4,24.4,0,0,1,4.7-.9c8.2-.9,10.4-.1,14.8.5s5.4,1.1,7.6,1.7l4-19.9a22.4,22.4,0,0,0-4.7-1.3Zm309.5,18.9a24.8,24.8,0,0,0-6-10.9c-8.1-7.9-18.3-9.2-29.1-9.4-2.8,0-5.6.2-8.3.4l-7.8,1c-2.5.4-4.8.8-6.9,1.3l-5.2,1.3,3,19.4a51.8,51.8,0,0,1,10.3-2.5c8.8-1.2,20.3-1.8,25,2.8a13.4,13.4,0,0,1,3.8,9.9v2.2a35.8,35.8,0,0,0-5.9-1,75.8,75.8,0,0,0-21.7.9,37.8,37.8,0,0,0-11.5,4.5,23.3,23.3,0,0,0-8,8.2c-4.3,7.4-3.2,19.8-.4,25.6a21.8,21.8,0,0,0,7.5,8.7,30.6,30.6,0,0,0,11.5,4.7c11.7,2.5,28,1.3,37.2,0l14.3-2.7v-50A53.5,53.5,0,0,0,1369.5,224.1Zm-21.2,49.4a51,51,0,0,1-5.2.5h-6.8c-4.4,0-7.9-.7-10.4-2.1-4.3-2.4-4.3-10.5-2.5-12.7a9.9,9.9,0,0,1,3.6-3.1,18.7,18.7,0,0,1,5.2-1.5,46.4,46.4,0,0,1,11.7-.1c1.9.2,3.4.5,4.4.7ZM949.6,206.7a37.4,37.4,0,0,0-12.9,8.6,42.1,42.1,0,0,0-9.2,14.1,51.8,51.8,0,0,0-3.4,19.7c.1,12.3,3.5,23.8,10.9,31.4a39,39,0,0,0,14,9.3c8,3.4,21.2,3.9,28.9,2.9,3.1-.3,5.9-.7,8.5-1.2s5-1.1,7.2-1.7a35.7,35.7,0,0,0,5.2-2l-3.3-19.5a46.9,46.9,0,0,1-10.4,3c-10.6,1.9-22.5,1.9-29.4-3.1a15.9,15.9,0,0,1-6.9-11.8h54.5c.1-1.3.2-2.8.3-4.4,1.1-14.9-2.9-29.6-10.3-37.1C983.8,203.8,962.6,201.2,949.6,206.7Zm-.8,33.2a32.9,32.9,0,0,1,1.5-6,15.8,15.8,0,0,1,3-5.2,13.5,13.5,0,0,1,4.8-3.7,19,19,0,0,1,14,.1,15.3,15.3,0,0,1,4.6,3.7,13.8,13.8,0,0,1,2.8,5.2,23.5,23.5,0,0,1,1,5.9Zm346.4-33.7-5.5-1-5.5-.7a89.6,89.6,0,0,0-24.2,1.8,158.4,158.4,0,0,0-15.3,4.3v80.3h24V226.1a27.6,27.6,0,0,1,4.8-.9c8.2-.9,10.3-.1,14.8.5,2.9.6,5.4,1.1,7.5,1.7l4.1-19.9A24.3,24.3,0,0,0,1295.2,206.2Zm-72.8,7c-8.1-7.9-18.3-9.2-29.1-9.4-2.8,0-5.6.2-8.3.4l-7.9,1-6.8,1.3-5.3,1.3,3.1,19.4a50.2,50.2,0,0,1,10.3-2.5c8.8-1.2,20.3-1.8,25,2.8,2.5,2.5,3.7,5.8,3.7,9.9v2.2a32.4,32.4,0,0,0-5.9-1,75.3,75.3,0,0,0-21.6.9,35.9,35.9,0,0,0-11.5,4.5,23.3,23.3,0,0,0-8,8.2c-4.4,7.4-3.3,19.8-.4,25.6a21.6,21.6,0,0,0,7.4,8.7,31.8,31.8,0,0,0,11.6,4.7c11.7,2.5,28,1.3,37.1,0l14.4-2.7v-50a53.5,53.5,0,0,0-1.8-14.4A25.8,25.8,0,0,0,1222.4,213.2Zm-15.3,60.3a48.7,48.7,0,0,1-5.1.5h-6.8c-4.4,0-7.9-.7-10.4-2.1-4.4-2.4-4.4-10.5-2.5-12.7a9.6,9.6,0,0,1,3.5-3.1,19.5,19.5,0,0,1,5.3-1.5,46.6,46.6,0,0,1,11.7-.1,38.3,38.3,0,0,1,4.3.7ZM607.2,290.9h24V206.1h-24Zm-22.4-77.7a27,27,0,0,0-11.4-7q-7-2.4-17.7-2.4c-2.8,0-5.6.2-8.3.4l-7.8,1c-2.5.4-4.8.8-6.9,1.3l-5.2,1.3,3,19.4a52.9,52.9,0,0,1,10.4-2.5c8.8-1.2,20.3-1.8,25,2.8a13.8,13.8,0,0,1,3.7,9.9v2.2a34,34,0,0,0-5.9-1,76,76,0,0,0-21.7.9,37.8,37.8,0,0,0-11.5,4.5,23,23,0,0,0-7.9,8.2c-4.4,7.4-3.3,19.8-.4,25.6a21.6,21.6,0,0,0,7.4,8.7,30.6,30.6,0,0,0,11.5,4.7c11.7,2.5,28.1,1.3,37.2,0l14.3-2.7v-50a53.7,53.7,0,0,0-1.7-14.4A24.9,24.9,0,0,0,584.8,213.2Zm-15.2,60.3a48.2,48.2,0,0,1-5.2.5h-6.8c-4.4,0-7.8-.7-10.4-2.1-4.3-2.4-4.3-10.5-2.5-12.7a9.9,9.9,0,0,1,3.6-3.1,18.7,18.7,0,0,1,5.2-1.5,46.4,46.4,0,0,1,11.7-.1,41,41,0,0,1,4.4.7Zm335.1-94.4c-2.1,6.5-4.4,13.5-7,21s-5.1,14.9-7.8,22.3-5.2,14.5-7.7,21.3-4.8,12.6-6.9,17.5c-2.2-4.9-4.6-10.8-7-17.6s-5-13.8-7.6-21.3-5.3-14.8-7.9-22.3-4.9-14.4-6.9-20.9H818.1c2.4,7.1,5.2,15.2,8.5,24.2s6.8,18.5,10.7,28.4,8,19.9,12.4,30,8.7,19.8,13.1,29.2h24c9-19,18.1-40.7,25.4-59.2,3.8-9.9,7.4-19.3,10.7-28.3s6.1-17.1,8.6-24.3ZM691.5,205.2l-5.5-.7a90.8,90.8,0,0,0-24.3,1.8c-5.8,1.4-10.9,2.8-15.2,4.3v80.3h24V226.1a27.6,27.6,0,0,1,4.8-.9c8.2-.9,10.3-.1,14.8.5,2.9.6,5.4,1.1,7.5,1.7l4.1-19.9a24.3,24.3,0,0,0-4.7-1.3Zm-62.3-34a15.6,15.6,0,0,0-20.2,0c-6.2,5.4-4.9,16.7,0,20.8s15.4,4.3,20.2,0a13.4,13.4,0,0,0,4.2-10.4C633.4,177.1,632,173.7,629.2,171.2Z"/></svg>